<svg xmlns="http://www.w3.org/2000/svg" viewBox="0 0 32 32"><defs><style>.cls-1{isolation:isolate;}.cls-2{fill:#faa41a;}.cls-3,.cls-4{fill:#9a293c;}.cls-3{mix-blend-mode:multiply;}</style></defs><g class="cls-1"><g id="Layer_1" data-name="Layer 1"><path class="cls-2" d="M16.48,19v3.9H21.3v1.88a14.59,14.59,0,0,1-3.75.5,4.24,4.24,0,0,1-4.36-4.45v-.05a4.22,4.22,0,0,1,4.11-4.41,5.66,5.66,0,0,1,3.88,1.52l2.61-3.15a9.36,9.36,0,0,0-6.52-2.34,8.34,8.34,0,0,0-8.65,8.36v0c0,4.87,3.74,8.31,8.75,8.31a16.94,16.94,0,0,0,3.93-.39v1.66h4.46V19Z"/><path class="cls-3" d="M21.35,22.85H16.53V19h14.1v3.9H25.81v7.48H21.35Z"/><path class="cls-3" d="M21.35,22.85H16.53V19h9.28v3.9h0v7.57H21.35Z"/><path class="cls-4" d="M11.94,3.69a3.14,3.14,0,0,0-4.1-1.12A3.14,3.14,0,0,0,2.62,5.86a3.14,3.14,0,0,0,2.51,5.58L6.49,13.6l6.66-4.2L11.79,7.25A3.15,3.15,0,0,0,11.94,3.69Z"/><rect class="cls-4" x="6.58" y="11.65" width="7.88" height="1.91" transform="translate(-5.1 7.55) rotate(-32.21)"/></g></g></svg>